<svg width="329" height="339" viewBox="0 0 329 339" fill="none" xmlns="http://www.w3.org/2000/svg">
<rect width="329" height="339" fill="white"/>
<path d="M179.016 76.2266C179.016 76.9219 178.93 77.543 178.758 78.0898C178.586 78.6367 178.352 79.1211 178.055 79.543C177.766 79.957 177.43 80.3125 177.047 80.6094C176.664 80.9062 176.262 81.1484 175.84 81.3359C175.426 81.5234 175.004 81.6602 174.574 81.7461C174.152 81.832 173.754 81.875 173.379 81.875H166.488V78.8281H173.379C173.77 78.7969 174.121 78.7188 174.434 78.5938C174.754 78.4609 175.027 78.2852 175.254 78.0664C175.48 77.8477 175.656 77.5859 175.781 77.2812C175.906 76.9688 175.969 76.6172 175.969 76.2266V74.8438C175.93 74.4609 175.848 74.1094 175.723 73.7891C175.598 73.4688 175.426 73.1953 175.207 72.9688C174.996 72.7422 174.738 72.5664 174.434 72.4414C174.129 72.3086 173.777 72.2422 173.379 72.2422H166.512C166.105 72.2422 165.797 72.3477 165.586 72.5586C165.375 72.7695 165.27 73.0742 165.27 73.4727V86H162.223V73.4727C162.223 72.6914 162.363 72.0273 162.645 71.4805C162.934 70.9336 163.289 70.4922 163.711 70.1563C164.141 69.8203 164.605 69.5781 165.105 69.4297C165.605 69.2734 166.066 69.1953 166.488 69.1953H173.379C174.066 69.1953 174.684 69.2852 175.23 69.4648C175.777 69.6367 176.258 69.8711 176.672 70.168C177.094 70.457 177.449 70.793 177.738 71.1758C178.035 71.5586 178.277 71.9609 178.465 72.3828C178.66 72.7969 178.801 73.2188 178.887 73.6484C178.973 74.0703 179.016 74.4688 179.016 74.8438V76.2266Z" fill="black"/>
<path d="M194.987 80.9398L188.303 79.4143C187.9 79.3222 187.572 79.3555 187.319 79.5142C187.068 79.6653 186.898 79.9351 186.81 80.3235L184.94 88.5152L181.969 87.8372L183.839 79.6455C183.956 79.1352 184.125 78.693 184.346 78.3189C184.568 77.9447 184.82 77.6297 185.103 77.3737C185.395 77.1118 185.706 76.9064 186.037 76.7575C186.369 76.6009 186.703 76.4889 187.039 76.4213C187.383 76.3555 187.718 76.3277 188.044 76.3381C188.379 76.3425 188.684 76.3761 188.958 76.4386L195.665 77.9693L194.987 80.9398Z" fill="black"/>
<path d="M212.466 95.2635C212.283 95.6435 212.018 96.023 211.671 96.4021C211.327 96.7741 210.912 97.0772 210.426 97.3116C209.951 97.5423 209.41 97.6675 208.802 97.687C208.201 97.7099 207.556 97.5552 206.866 97.2229L201.914 94.8384C201.534 94.6553 201.155 94.3901 200.776 94.0429C200.404 93.699 200.099 93.2877 199.861 92.809C199.634 92.3267 199.509 91.7852 199.486 91.1845C199.466 90.5768 199.623 89.928 199.955 89.2382C200.138 88.8581 200.403 88.4786 200.75 88.0995C201.098 87.7205 201.509 87.4156 201.984 87.1849C202.47 86.9506 203.013 86.822 203.614 86.7991C204.221 86.7796 204.87 86.9359 205.56 87.2681L210.512 89.6528L209.251 92.2712L204.299 89.8864C203.926 89.7069 203.581 89.6841 203.265 89.818C202.953 89.945 202.715 90.1774 202.552 90.5152C202.38 90.8742 202.36 91.2117 202.494 91.5277C202.639 91.84 202.873 92.0742 203.196 92.2301L208.127 94.6045C208.5 94.7841 208.843 94.8106 209.156 94.6837C209.468 94.5567 209.706 94.3243 209.869 93.9864L211.714 90.1538C211.887 89.7948 211.912 89.4555 211.788 89.1359C211.672 88.8196 211.445 88.5802 211.107 88.4174L205.078 85.5142L206.334 82.9062L212.363 85.8096C212.743 85.9926 213.119 86.2561 213.491 86.6C213.87 86.9473 214.173 87.3621 214.4 87.8444C214.638 88.3231 214.767 88.8663 214.786 89.474C214.809 90.0747 214.654 90.7199 214.322 91.4097L212.466 95.2635Z" fill="black"/>
<path d="M224.536 110.574L218.077 105.423C217.747 105.16 217.433 104.815 217.135 104.387C216.837 103.959 216.624 103.48 216.498 102.949C216.382 102.418 216.379 101.851 216.489 101.249C216.611 100.646 216.917 100.036 217.409 99.4195L219.981 96.1945C220.161 95.9685 220.376 95.7498 220.624 95.5383C220.879 95.3317 221.159 95.1501 221.463 94.9935C221.773 94.8307 222.103 94.7044 222.455 94.6148C222.812 94.5301 223.181 94.4996 223.562 94.5234C223.949 94.5521 224.345 94.6437 224.752 94.798C225.158 94.9524 225.566 95.1927 225.976 95.5191L232.435 100.67L230.535 103.052L224.076 97.9012C223.764 97.6528 223.463 97.5422 223.171 97.5695C222.886 97.6017 222.612 97.7827 222.348 98.1125L219.791 101.319C219.543 101.631 219.435 101.935 219.469 102.231C219.502 102.528 219.678 102.802 219.995 103.056L226.436 108.192L224.536 110.574Z" fill="black"/>
<path d="M243.82 119.613L240.503 115.453L232.981 121.452L231.059 119.042L238.581 113.043L236.112 109.947L238.494 108.047L240.963 111.144L244.198 108.564L246.119 110.974L242.885 113.553L246.202 117.713L243.82 119.613Z" fill="black"/>
<path d="M254.8 129.37L253.478 126.625L255.959 125.43L257.281 128.175L254.8 129.37ZM241.043 135.995L239.721 133.25L251.134 127.753L252.456 130.498L241.043 135.995Z" fill="black"/>
<path d="M248.176 160.859L246.338 152.805C246.244 152.393 246.214 151.927 246.247 151.407C246.28 150.886 246.413 150.379 246.645 149.886C246.886 149.398 247.238 148.953 247.699 148.551C248.169 148.156 248.789 147.87 249.559 147.694L253.58 146.776C253.862 146.712 254.166 146.675 254.492 146.664C254.82 146.662 255.152 146.694 255.488 146.762C255.832 146.827 256.169 146.935 256.499 147.084C256.831 147.24 257.139 147.447 257.422 147.703C257.706 147.966 257.959 148.285 258.181 148.659C258.402 149.033 258.572 149.475 258.688 149.986L260.526 158.04L257.556 158.718L255.718 150.664C255.629 150.275 255.462 150.001 255.217 149.84C254.974 149.688 254.647 149.658 254.235 149.752L250.237 150.665C249.848 150.753 249.575 150.924 249.416 151.177C249.257 151.429 249.223 151.753 249.313 152.15L251.147 160.181L248.176 160.859Z" fill="black"/>
<path d="M256.473 181.059C256.051 181.059 255.594 180.984 255.102 180.836C254.617 180.688 254.164 180.445 253.742 180.109C253.328 179.781 252.98 179.348 252.699 178.809C252.418 178.277 252.277 177.629 252.277 176.863V171.367H255.172V176.863C255.172 177.277 255.297 177.598 255.547 177.824C255.805 178.051 256.121 178.164 256.496 178.164C256.895 178.164 257.207 178.035 257.434 177.777C257.66 177.527 257.773 177.223 257.773 176.863V171.367C257.773 170.953 257.645 170.633 257.387 170.406C257.137 170.18 256.824 170.066 256.449 170.066H252.195C251.789 170.066 251.473 170.191 251.246 170.441C251.02 170.699 250.906 171.016 250.906 171.391V176.863H248V171.367C248 170.945 248.074 170.488 248.223 169.996C248.371 169.512 248.609 169.059 248.938 168.637C249.273 168.223 249.707 167.875 250.238 167.594C250.777 167.312 251.43 167.172 252.195 167.172H256.473C256.895 167.172 257.348 167.246 257.832 167.395C258.324 167.543 258.777 167.781 259.191 168.109C259.613 168.445 259.965 168.879 260.246 169.41C260.527 169.949 260.668 170.602 260.668 171.367V176.863C260.668 177.285 260.594 177.738 260.445 178.223C260.297 178.715 260.055 179.168 259.719 179.582C259.391 180.004 258.957 180.355 258.418 180.637C257.887 180.918 257.238 181.059 256.473 181.059Z" fill="black"/>
<path d="M214.342 236.556L216.724 234.656L227.202 247.794L224.82 249.694L214.342 236.556Z" fill="black"/>
<path d="M194.208 247.875L196.953 246.553L200.599 254.124C200.771 254.483 200.997 254.708 201.275 254.799C201.557 254.898 201.884 254.857 202.257 254.678L205.826 252.959L201.651 244.291L204.397 242.969L209.237 253.02C209.329 253.21 209.378 253.403 209.386 253.599C209.397 253.802 209.368 253.994 209.299 254.174C209.233 254.362 209.132 254.532 208.997 254.683C208.862 254.835 208.7 254.957 208.51 255.048L203.558 257.433C203.178 257.616 202.737 257.746 202.237 257.822C201.736 257.899 201.217 257.884 200.681 257.778L201.087 258.623L197.371 260.413C197.11 260.538 196.821 260.639 196.502 260.714C196.186 260.797 195.857 260.843 195.514 260.852C195.165 260.864 194.81 260.831 194.452 260.752C194.096 260.68 193.751 260.548 193.415 260.354C193.082 260.167 192.766 259.916 192.467 259.601C192.167 259.285 191.904 258.892 191.677 258.42L188.031 250.85L190.776 249.528L194.422 257.098C194.595 257.457 194.817 257.684 195.088 257.779C195.356 257.884 195.676 257.847 196.049 257.667L198.52 256.478C198.265 256.184 198.043 255.84 197.853 255.446L194.208 247.875Z" fill="black"/>
<path d="M172.919 257.609C172.802 257.099 172.762 256.623 172.797 256.182C172.835 255.749 172.924 255.352 173.066 254.991C173.21 254.638 173.398 254.318 173.629 254.033C173.862 253.756 174.119 253.513 174.4 253.304C174.674 253.098 174.959 252.924 175.255 252.784C175.554 252.652 175.844 252.554 176.126 252.49L181.484 251.267L182.162 254.237L176.804 255.46C176.407 255.551 176.134 255.721 175.983 255.972C175.832 256.223 175.8 256.543 175.889 256.931L176.802 260.93C176.896 261.341 177.068 261.622 177.319 261.773C177.562 261.926 177.878 261.958 178.266 261.87L183.602 260.652C184.006 260.56 184.287 260.387 184.445 260.135C184.606 259.89 184.642 259.573 184.553 259.185L181.802 247.131L184.773 246.453L187.524 258.507C187.64 259.017 187.68 259.489 187.642 259.922C187.605 260.355 187.514 260.748 187.371 261.102C187.221 261.464 187.03 261.785 186.797 262.062C186.565 262.347 186.313 262.593 186.039 262.8C185.758 263.008 185.469 263.179 185.17 263.311C184.866 263.452 184.577 263.554 184.303 263.617L178.944 264.84C178.434 264.957 177.962 264.996 177.529 264.959C177.096 264.921 176.703 264.831 176.349 264.687C175.988 264.545 175.669 264.358 175.391 264.124C175.106 263.893 174.859 263.637 174.651 263.356C174.444 263.082 174.275 262.797 174.143 262.498C174.003 262.202 173.901 261.912 173.837 261.631L172.919 257.609Z" fill="black"/>
<path d="M154.484 262.621H161.34C161.754 262.621 162.066 262.516 162.277 262.305C162.488 262.102 162.594 261.801 162.594 261.402V253H165.641V261.402C165.641 261.926 165.574 262.395 165.441 262.809C165.309 263.223 165.133 263.586 164.914 263.898C164.688 264.219 164.43 264.488 164.141 264.707C163.852 264.934 163.551 265.117 163.238 265.258C162.918 265.398 162.598 265.5 162.277 265.562C161.949 265.633 161.645 265.668 161.363 265.668H154.484V262.621Z" fill="black"/>
<path d="M134.038 252.581C134.154 252.071 134.324 251.625 134.547 251.243C134.769 250.869 135.022 250.55 135.307 250.286C135.59 250.03 135.897 249.824 136.229 249.667C136.56 249.518 136.897 249.411 137.24 249.345C137.576 249.278 137.912 249.246 138.248 249.251C138.574 249.261 138.878 249.298 139.16 249.363L144.518 250.586C144.929 250.679 145.362 250.854 145.817 251.11C146.271 251.366 146.67 251.706 147.014 252.129C147.349 252.558 147.598 253.067 147.759 253.657C147.912 254.253 147.9 254.936 147.725 255.705L146.807 259.726C146.633 260.488 146.349 261.1 145.955 261.563C145.551 262.032 145.107 262.383 144.621 262.617C144.125 262.857 143.617 262.993 143.097 263.027C142.576 263.06 142.11 263.03 141.699 262.936L136.341 261.713C135.579 261.539 134.963 261.254 134.492 260.858C134.022 260.462 133.671 260.018 133.439 259.524C133.205 259.038 133.071 258.535 133.038 258.014C132.997 257.492 133.024 257.021 133.12 256.602L134.038 252.581ZM136.096 257.258C136.002 257.669 136.035 257.997 136.195 258.242C136.356 258.487 136.63 258.654 137.019 258.742L142.354 259.96C142.75 260.051 143.075 260.016 143.327 259.858C143.578 259.707 143.748 259.437 143.836 259.048L144.754 255.027C144.843 254.638 144.808 254.318 144.649 254.065C144.491 253.813 144.213 253.641 143.817 253.551L138.482 252.333C138.078 252.241 137.754 252.275 137.509 252.436C137.264 252.596 137.097 252.87 137.008 253.259L136.096 257.258Z" fill="black"/>
<path d="M111.02 250.484C111.794 249.668 112.614 248.893 113.48 248.157C114.346 247.42 115.255 246.757 116.207 246.166C117.149 245.579 118.129 245.084 119.147 244.681C120.154 244.282 121.19 244.013 122.253 243.875C123.307 243.741 124.381 243.751 125.477 243.906C126.563 244.064 127.658 244.41 128.763 244.942C128.953 245.034 129.116 245.155 129.251 245.307C129.386 245.459 129.488 245.625 129.557 245.806C129.623 245.993 129.652 246.185 129.644 246.381C129.633 246.584 129.582 246.78 129.49 246.97L124.64 257.043L121.895 255.721L126.028 247.137C125.36 246.815 124.65 246.651 123.898 246.644C123.14 246.635 122.373 246.733 121.596 246.941C120.817 247.155 120.049 247.453 119.293 247.834C118.53 248.213 117.813 248.63 117.142 249.088C116.467 249.552 115.856 250.029 115.308 250.519C114.752 251.006 114.294 251.462 113.934 251.887L111.02 250.484Z" fill="black"/>
<path d="M98.1193 234.203C98.3823 233.874 98.7253 233.563 99.1482 233.27C99.5663 232.984 100.038 232.781 100.564 232.66C101.079 232.541 101.634 232.54 102.231 232.656C102.822 232.767 103.416 233.062 104.015 233.539L108.312 236.966L106.507 239.229L102.21 235.802C101.887 235.544 101.558 235.442 101.225 235.496C100.887 235.557 100.601 235.733 100.368 236.026C100.119 236.338 100.025 236.663 100.086 237.001C100.14 237.334 100.307 237.612 100.588 237.836L104.885 241.263C105.209 241.521 105.54 241.62 105.878 241.56C106.211 241.505 106.494 241.332 106.728 241.039L109.38 237.713C109.633 237.395 109.733 237.07 109.679 236.737C109.619 236.399 109.442 236.113 109.149 235.879L104.87 232.467L106.682 230.195L110.979 233.622C111.309 233.885 111.62 234.228 111.912 234.651C112.198 235.069 112.404 235.538 112.529 236.057C112.643 236.578 112.645 237.134 112.534 237.724C112.417 238.321 112.121 238.919 111.643 239.517L108.976 242.862C108.713 243.191 108.373 243.499 107.955 243.786C107.532 244.078 107.063 244.284 106.548 244.403C106.023 244.523 105.464 244.528 104.874 244.416C104.277 244.3 103.679 244.003 103.081 243.526L98.7836 240.099C98.4538 239.836 98.1458 239.496 97.8596 239.078C97.5674 238.655 97.3641 238.183 97.2498 237.662C97.1246 237.142 97.12 236.584 97.2363 235.987C97.3476 235.397 97.6419 234.802 98.1193 234.203Z" fill="black"/>
<path d="M75.1755 175.612C75.762 175.478 76.3088 175.433 76.8158 175.478C77.3134 175.517 77.769 175.617 78.1827 175.779C78.5963 175.941 78.9661 176.157 79.2922 176.427C79.6183 176.697 79.9013 176.989 80.1413 177.303C80.3812 177.617 80.5809 177.948 80.7405 178.296C80.8984 178.637 81.0139 178.967 81.0869 179.287L83.7024 190.746L80.7319 191.424L78.1164 179.965C77.986 179.394 77.7176 178.99 77.3112 178.755C76.9031 178.511 76.4172 178.454 75.8535 178.582C75.5793 178.645 75.3376 178.744 75.1282 178.88C74.9188 179.016 74.7486 179.183 74.6175 179.381C74.4847 179.572 74.3987 179.792 74.3595 180.041C74.3185 180.283 74.3293 180.541 74.3919 180.815L75.9513 187.647C76.0608 188.127 76.0952 188.664 76.0545 189.258C76.0063 189.854 75.8465 190.436 75.5752 191.003C75.3021 191.562 74.8936 192.072 74.3497 192.532C73.804 192.986 73.0856 193.314 72.1945 193.517C71.3033 193.721 70.5175 193.736 69.8368 193.562C69.1469 193.383 68.5576 193.101 68.069 192.716C67.571 192.325 67.1748 191.87 66.8803 191.352C66.5782 190.836 66.3724 190.338 66.2629 189.859L63.9551 179.748L66.9256 179.07L69.2334 189.181C69.362 189.744 69.6342 190.147 70.05 190.389C70.464 190.623 70.9529 190.675 71.5165 190.547C72.0877 190.416 72.5053 190.157 72.7691 189.768C73.0236 189.373 73.0866 188.894 72.9579 188.331L71.3985 181.498L71.3933 181.476C71.3279 181.154 71.2963 180.805 71.2983 180.427C71.2928 180.052 71.3338 179.67 71.4214 179.281C71.5073 178.885 71.6432 178.498 71.8291 178.119C72.0075 177.741 72.2478 177.39 72.5502 177.065C72.8508 176.732 73.2169 176.44 73.6485 176.189C74.08 175.938 74.5891 175.746 75.1755 175.612Z" fill="black"/>
<path d="M79.4648 157.719C79.6836 157.719 79.8867 157.758 80.0742 157.836C80.2617 157.914 80.4258 158.023 80.5664 158.164C80.6992 158.297 80.8047 158.457 80.8828 158.644C80.9609 158.824 81 159.019 81 159.23V166.121C81 166.496 80.957 166.898 80.8711 167.328C80.7852 167.75 80.6484 168.168 80.4609 168.582C80.2656 168.996 80.0234 169.398 79.7344 169.789C79.4375 170.172 79.082 170.508 78.668 170.797C78.2461 171.086 77.7617 171.32 77.2148 171.5C76.668 171.672 76.0508 171.758 75.3633 171.758H68.332V168.711H75.3633C75.7617 168.711 76.1211 168.645 76.4414 168.512C76.7539 168.371 77.0234 168.184 77.25 167.949C77.4766 167.715 77.6523 167.441 77.7773 167.129C77.8945 166.809 77.9531 166.465 77.9531 166.098V160.766H68.332V157.719H79.4648Z" fill="black"/>
<path d="M85.3641 140.975L83.5257 149.03C83.4318 149.441 83.2569 149.874 83.0009 150.328C82.7449 150.783 82.4054 151.182 81.9822 151.526C81.5532 151.861 81.0438 152.109 80.4539 152.271C79.8582 152.424 79.1757 152.412 78.4064 152.237L74.3848 151.319C74.103 151.254 73.8129 151.156 73.5145 151.024C73.2179 150.884 72.9329 150.711 72.6595 150.504C72.3785 150.296 72.1214 150.053 71.8883 149.775C71.6569 149.49 71.4693 149.171 71.3256 148.817C71.1836 148.456 71.094 148.059 71.0566 147.626C71.0193 147.193 71.0588 146.721 71.1753 146.211L73.0137 138.156L75.9842 138.834L74.1458 146.889C74.0571 147.277 74.0884 147.597 74.2394 147.848C74.3923 148.091 74.6743 148.26 75.0856 148.353L79.0844 149.266C79.4728 149.355 79.7933 149.32 80.0459 149.161C80.2985 149.002 80.47 148.725 80.5604 148.329L82.3936 140.297L85.3641 140.975Z" fill="black"/>
<path d="M93.6952 124.082L90.1106 131.526C89.9275 131.906 89.6606 132.289 89.31 132.675C88.9593 133.061 88.5394 133.375 88.0503 133.616C87.5575 133.847 87.0056 133.976 86.3945 134.003C85.7798 134.019 85.1169 133.856 84.406 133.513L80.6895 131.723C80.4291 131.598 80.1681 131.438 79.9067 131.242C79.6486 131.04 79.4093 130.808 79.1887 130.546C78.9611 130.28 78.7646 129.986 78.5991 129.663C78.4369 129.334 78.3251 128.981 78.2636 128.604C78.2055 128.221 78.2065 127.814 78.2664 127.383C78.3264 126.952 78.47 126.501 78.6971 126.03L82.2817 118.586L85.0269 119.908L81.4422 127.352C81.2694 127.71 81.2287 128.029 81.3202 128.307C81.415 128.578 81.6525 128.805 82.0326 128.989L85.728 130.768C86.087 130.941 86.4073 130.978 86.6888 130.88C86.9704 130.781 87.1993 130.549 87.3756 130.183L90.95 122.76L93.6952 124.082Z" fill="black"/>
<path d="M99.799 103.115C100.129 103.378 100.44 103.721 100.732 104.144C101.018 104.562 101.222 105.034 101.342 105.56C101.461 106.075 101.463 106.63 101.346 107.227C101.235 107.818 100.941 108.413 100.463 109.011L97.0366 113.308L94.7735 111.503L98.2003 107.206C98.4584 106.883 98.5604 106.554 98.5062 106.221C98.4459 105.883 98.2692 105.598 97.976 105.364C97.6645 105.115 97.3398 105.021 97.0019 105.082C96.6689 105.136 96.3904 105.303 96.1663 105.584L92.7395 109.881C92.4814 110.205 92.3824 110.536 92.4428 110.874C92.4969 111.207 92.6706 111.49 92.9638 111.724L96.2897 114.376C96.6073 114.63 96.9326 114.729 97.2656 114.675C97.6035 114.615 97.8893 114.438 98.1231 114.145L101.535 109.866L103.807 111.678L100.381 115.975C100.118 116.305 99.7747 116.616 99.3518 116.908C98.9337 117.194 98.4649 117.4 97.9453 117.525C97.4245 117.64 96.8688 117.641 96.2781 117.53C95.6812 117.413 95.0835 117.117 94.485 116.639L91.1408 113.972C90.811 113.709 90.503 113.369 90.2168 112.951C89.9246 112.528 89.7189 112.059 89.5997 111.544C89.4793 111.019 89.4748 110.46 89.5861 109.87C89.7024 109.273 89.9991 108.675 90.4765 108.077L93.9033 103.78C94.1663 103.45 94.5068 103.142 94.9249 102.856C95.3478 102.563 95.8197 102.36 96.3405 102.246C96.8601 102.121 97.4183 102.116 98.0151 102.232C98.6058 102.344 99.2004 102.638 99.799 103.115Z" fill="black"/>
<path d="M116.192 90.3831C116.455 90.713 116.682 91.1166 116.873 91.5939C117.059 92.0652 117.152 92.5704 117.153 93.1097C117.154 93.638 117.032 94.1802 116.786 94.7362C116.546 95.2873 116.127 95.8015 115.528 96.2789L111.231 99.7056L109.426 97.4426L113.723 94.0159C114.047 93.7577 114.219 93.4602 114.241 93.1235C114.257 92.7807 114.148 92.4627 113.915 92.1695C113.666 91.858 113.371 91.6941 113.028 91.6777C112.691 91.6564 112.382 91.7578 112.101 91.9819L107.804 95.4086C107.48 95.6668 107.31 95.9673 107.294 96.3101C107.273 96.6468 107.379 96.9618 107.613 97.255L110.265 100.581C110.518 100.898 110.813 101.068 111.15 101.089C111.493 101.105 111.811 100.997 112.104 100.763L116.383 97.3509L118.195 99.6231L113.898 103.05C113.568 103.313 113.164 103.54 112.687 103.731C112.216 103.916 111.713 104.013 111.179 104.019C110.645 104.015 110.103 103.892 109.552 103.653C108.996 103.406 108.479 102.984 108.002 102.385L105.335 99.0414C105.072 98.7115 104.848 98.311 104.662 97.8397C104.471 97.3624 104.375 96.8595 104.373 96.3312C104.373 95.7919 104.492 95.2467 104.732 94.6956C104.979 94.1396 105.401 93.623 105.999 93.1456L110.297 89.7188C110.626 89.4558 111.027 89.2313 111.498 89.0454C111.975 88.8545 112.481 88.7614 113.014 88.7659C113.548 88.7594 114.094 88.8792 114.65 89.1253C115.201 89.3652 115.715 89.7845 116.192 90.3831Z" fill="black"/>
<path d="M136.62 85.502C136.848 85.9736 136.993 86.4282 137.056 86.8659C137.116 87.2966 137.117 87.7037 137.059 88.0872C136.998 88.4637 136.886 88.8167 136.724 89.1462C136.558 89.4687 136.362 89.7628 136.134 90.0285C135.913 90.2908 135.671 90.5248 135.405 90.7305C135.144 90.9258 134.883 91.0862 134.623 91.2116L129.671 93.5962C129.199 93.8234 128.748 93.9669 128.317 94.0269C127.887 94.0869 127.48 94.0878 127.096 94.0297C126.716 93.9612 126.362 93.8459 126.032 93.6837C125.709 93.5182 125.417 93.3252 125.155 93.1046C124.889 92.8771 124.655 92.6342 124.453 92.3761C124.254 92.1076 124.094 91.8467 123.972 91.5933L122.182 87.8768C121.843 87.1729 121.683 86.5171 121.703 85.9094C121.726 85.2913 121.855 84.7393 122.089 84.2536C122.327 83.7575 122.639 83.3341 123.025 82.9834C123.411 82.6327 123.794 82.3658 124.174 82.1828L129.126 79.7981L130.448 82.5433L125.517 84.9178C125.151 85.094 124.919 85.323 124.821 85.6045C124.719 85.8791 124.754 86.1958 124.927 86.5548L126.707 90.2502C126.886 90.6232 127.113 90.8607 127.388 90.9626C127.67 91.0612 127.99 91.024 128.349 90.8511L133.301 88.4664C133.674 88.2868 133.906 88.0579 133.997 87.7797C134.089 87.5015 134.048 87.1829 133.875 86.8239L127.911 74.4391L130.656 73.1172L136.62 85.502Z" fill="black"/>
<g opacity="0.4">
<path d="M147 74C148.657 74 150 75.3431 150 77C150 78.6569 148.657 80 147 80C145.343 80 144 78.6569 144 77C144 75.3431 145.343 74 147 74Z" fill="black"/>
<path d="M243 213C244.657 213 246 214.343 246 216C246 217.657 244.657 219 243 219C241.343 219 240 217.657 240 216C240 214.343 241.343 213 243 213Z" fill="black"/>
<path d="M83 213C84.6569 213 86 214.343 86 216C86 217.657 84.6569 219 83 219C81.3431 219 80 217.657 80 216C80 214.343 81.3431 213 83 213Z" fill="black"/>
</g>
<path d="M152.565 141.336C153.787 142.636 154.592 144.203 155.054 145.896C155.805 148.646 155.758 151.726 155.505 154.868C154.999 161.152 153.739 167.766 155.209 171.871C156.589 175.723 158.802 178.011 161.257 179.136C162.313 179.62 163.424 179.888 164.549 179.958C167.237 172.076 166.663 162.018 162.241 155.22C168.096 161.061 170.862 169.881 169.075 179.125L168.012 179.552C168.344 179.453 168.671 179.338 168.992 179.208C174.051 177.165 178.192 171.185 176.469 162.418C175.678 158.39 172.962 152.71 168.417 148.31C164.484 144.504 159.234 141.625 152.564 141.336L152.565 141.336ZM186.951 163.561C186.849 165.026 186.389 166.41 185.672 167.667C184.419 169.863 182.47 171.754 180.359 173.551C176.138 177.144 171.27 180.472 169.665 183.87C168.145 187.089 168.105 189.834 168.916 192.018C169.263 192.952 169.781 193.813 170.445 194.557C176.949 191.313 182.764 184.759 184.227 177.842C184.236 185.065 180.517 192.215 173.737 196.843C178.072 198.604 184.185 197.452 188.476 191.06C190.465 188.099 192.298 182.911 192.208 177.392C192.131 172.707 190.722 167.798 186.951 163.561L186.951 163.561ZM135.502 172.457C134.353 178.013 135.587 182.972 137.863 187.068C140.543 191.892 144.727 195.469 147.929 197.039C154.84 200.428 160.706 198.367 163.58 194.674C155.395 194.057 148.602 189.725 145 183.466C149.725 188.724 158.037 191.493 165.291 191.049C165.495 190.074 165.514 189.069 165.348 188.086C164.958 185.79 163.547 183.43 160.621 181.403C157.533 179.263 151.655 178.817 146.203 177.816C143.478 177.316 140.845 176.655 138.662 175.379C137.412 174.649 136.323 173.676 135.502 172.458L135.502 172.457Z" fill="black"/>
</svg>
